# xmcd
#
# Track frame offsets:
#       150
#       13920
#       27843
#       43662
#       55765
#       63979
#       78678
#       92638
#       105816
#       119384
#       134923
#       151783
#
# Disc length: 2218 seconds
#
# Revision: 1
# Processed by: cddbd v1.5PL3 Copyright (c) Steve Scherf et al.
# Submitted via: MusiCat 1.1
#
DISCID=9708a80c
DTITLE=Dolly Parton - Dolly Parton
DYEAR=1900
DGENRE=
TTITLE0=Joshua
TTITLE1=Coat Of Many Colors
TTITLE2=My Blue Ridge Mountion Boy
TTITLE3=Jolene
TTITLE4=Burning The Midnight Oil
TTITLE5=The Seeker
TTITLE6=Two Doors Down
TTITLE7=Here You Come Again
TTITLE8=9 To 5
TTITLE9=Old Flames Can't Hold A Candle To You
TTITLE10=Single Women
TTITLE11=Potential New Boyfriend
EXTD=\n\n
EXTT0=
EXTT1=
EXTT2=
EXTT3=
EXTT4=Porter Wagoner And Dolly Parton
EXTT5=
EXTT6=
EXTT7=
EXTT8=
EXTT9=
EXTT10=
EXTT11=
PLAYORDER=
